
<svg version="1.0" xmlns="http://www.w3.org/2000/svg"
 width="330.000000pt" height="37.000000pt" viewBox="0 0 330.000000 37.000000"
 preserveAspectRatio="xMidYMid meet">

<g transform="translate(0.000000,37.000000) scale(0.100000,-0.100000)"
fill="#000000" stroke="none">
<path d="M0 185 l0 -185 170 0 170 0 0 30 0 29 -137 3 -138 3 0 43 0 44 108 0
107 -1 0 35 0 34 -110 0 -110 0 0 45 0 45 140 0 140 0 0 30 0 30 -170 0 -170
0 0 -185z"/>
<path d="M400 185 l0 -185 183 2 182 3 3 28 3 27 -155 0 -156 0 0 155 0 155
-30 0 -30 0 0 -185z"/>
<path d="M830 185 l0 -185 165 0 165 0 0 30 0 30 -135 0 -135 0 0 50 0 50 110
0 110 0 0 30 0 30 -110 0 -110 0 0 45 0 45 135 0 135 0 0 30 0 30 -165 0 -165
0 0 -185z"/>
<path d="M1220 192 c0 -98 2 -181 5 -184 3 -3 16 -3 30 0 24 4 24 5 27 139 l3
135 68 -81 c38 -45 72 -81 77 -79 4 2 37 38 74 81 l65 77 3 -136 3 -137 28 -1
27 -2 0 183 0 183 -33 0 c-30 0 -42 -9 -102 -81 -55 -66 -70 -78 -79 -67 -7 7
-39 43 -70 81 -51 58 -63 67 -92 67 l-34 0 0 -178z"/>
<path d="M1690 185 l0 -185 170 0 170 0 0 30 0 29 -137 3 -138 3 0 43 0 44
110 1 110 2 0 30 0 30 -110 5 -110 5 0 40 0 40 138 3 137 3 0 29 0 30 -170 0
-170 0 0 -185z"/>
<path d="M2090 184 l0 -185 28 3 27 3 5 135 5 134 114 -137 c105 -126 117
-137 147 -137 l34 0 0 185 0 185 -30 0 -29 0 -3 -137 -3 -138 -115 138 c-104
125 -118 137 -147 137 l-33 0 0 -186z"/>
<path d="M2510 340 l0 -30 75 0 75 0 0 -155 0 -155 30 0 30 0 0 155 0 155 75
0 75 0 0 30 0 30 -180 0 -180 0 0 -30z"/>
<path d="M2951 344 c-29 -36 -29 -131 -2 -165 18 -23 26 -24 156 -27 l136 -4
-3 -41 -3 -42 -118 -3 c-98 -2 -118 0 -123 13 -4 9 -18 15 -35 15 -36 0 -39
-25 -8 -64 20 -26 21 -26 163 -26 136 0 144 1 164 23 18 19 22 35 22 86 0 52
-4 66 -25 86 -23 24 -29 25 -155 25 l-131 0 3 43 3 42 118 3 c98 2 118 0 123
-13 4 -9 18 -15 35 -15 24 0 29 4 29 23 0 13 -10 33 -23 45 -22 20 -33 22
-164 22 -141 0 -142 0 -162 -26z"/>
</g>
</svg>
